<svg width="13" height="15" viewBox="0 0 13 15" fill="none" xmlns="http://www.w3.org/2000/svg">
<path d="M12.2219 5.73785C12.256 5.69015 12.2765 5.63563 12.2901 5.58111C12.2901 5.56748 12.2901 5.54703 12.2969 5.5334C12.3037 5.49251 12.3037 5.45162 12.2969 5.40392C12.2969 5.38348 12.2969 5.36303 12.2901 5.3494C12.2901 5.33577 12.2901 5.32214 12.2901 5.30851C11.5268 2.68477 9.08026 0.851562 6.34748 0.851562C3.61471 0.851562 1.16816 2.68477 0.404886 5.30851C0.404886 5.32214 0.404886 5.33577 0.404886 5.3494C0.404886 5.36985 0.404886 5.39029 0.398071 5.40392C0.398071 5.44481 0.398071 5.49251 0.398071 5.5334C0.398071 5.54703 0.398071 5.56748 0.404886 5.58111C0.418516 5.63563 0.438961 5.69015 0.473035 5.73785C0.473035 5.74467 0.486665 5.75148 0.49348 5.75829C0.513925 5.78555 0.541184 5.81963 0.575259 5.84689C0.582074 5.8537 0.595704 5.86052 0.609333 5.86733C0.616148 5.86733 0.622963 5.88096 0.629778 5.88778L4.56879 8.34796H4.30301C3.26715 8.34796 2.42891 9.18619 2.42891 10.2221V12.2665C2.42891 13.3024 3.26715 14.1406 4.30301 14.1406H8.39196C9.42782 14.1406 10.2661 13.3024 10.2661 12.2665V10.2221C10.2661 9.18619 9.42782 8.34796 8.39196 8.34796H8.12617L12.0652 5.88778C12.0652 5.88778 12.0788 5.87415 12.0856 5.87415C12.0993 5.86733 12.1061 5.86052 12.1197 5.8537C12.1538 5.82644 12.1742 5.79918 12.2015 5.76511C12.2015 5.7583 12.2151 5.75148 12.2219 5.74467V5.73785ZM5.83637 7.93225L2.00639 5.54022C2.46299 5.39029 3.00137 5.28125 3.62152 5.28125C4.16671 5.28125 4.97769 5.38347 5.83637 5.78555V7.93906V7.93225ZM6.8586 5.77192C7.39016 5.52659 8.14662 5.28125 9.07345 5.28125C9.48916 5.28125 10.0616 5.34259 10.6886 5.54022L6.8586 7.93225V5.77192ZM6.34748 1.8738C8.23521 1.8738 9.95257 2.91648 10.8521 4.51798C10.157 4.31353 9.53686 4.25902 9.07345 4.25902C7.92854 4.25902 6.98809 4.5725 6.34748 4.87917C5.28436 4.36805 4.28938 4.25902 3.62152 4.25902C2.95366 4.25902 2.34713 4.36805 1.84283 4.51798C2.7424 2.91648 4.46657 1.8738 6.34748 1.8738ZM9.24382 10.2221V12.2665C9.24382 12.7368 8.86218 13.1184 8.39196 13.1184H4.30301C3.83278 13.1184 3.45115 12.7368 3.45115 12.2665V10.2221C3.45115 9.75183 3.83278 9.3702 4.30301 9.3702H8.39196C8.86218 9.3702 9.24382 9.75183 9.24382 10.2221Z" fill="#585858"/>
</svg>
