<svg width="17" height="16" viewBox="0 0 17 16" fill="none" xmlns="http://www.w3.org/2000/svg">
<path d="M15.7937 3.91499C15.7387 3.84425 15.6758 3.78923 15.5893 3.74207L9.44315 0.723998C8.83796 0.425334 8.14632 0.425334 7.54899 0.723998L1.33993 3.74207C1.20631 3.80495 1.11986 3.91499 1.06484 4.04074C0.923369 4.21365 0.836914 4.43372 0.836914 4.66165V10.8943C0.836914 11.751 1.33993 12.5212 2.11803 12.867L7.61973 15.3114C7.90267 15.4371 8.20134 15.5 8.5 15.5C8.79867 15.5 9.09733 15.4371 9.38027 15.3114L14.882 12.867C15.6601 12.5212 16.1631 11.7431 16.1631 10.8943V4.6695C16.1631 4.37084 16.0216 4.10362 15.8015 3.91499H15.7937ZM8.05986 1.78504C8.33495 1.65143 8.64933 1.65143 8.92442 1.78504L13.8288 4.19007L11.6281 5.17252L6.78661 2.40595L8.06772 1.78504H8.05986ZM8.57074 6.52436C8.52358 6.54794 8.4607 6.54794 8.41355 6.52436L3.13191 4.18221L5.49764 3.03471L10.2841 5.76985L8.57074 6.53222V6.52436ZM2.5896 11.7981C2.23592 11.6409 2.00799 11.2873 2.00799 10.9021V4.96817L7.90267 7.58541V14.156L2.5896 11.7981ZM14.9763 10.9021C14.9763 11.2873 14.7484 11.6409 14.3947 11.7981L9.08161 14.156V7.59327L14.9763 4.97603V10.91V10.9021Z" fill="#585858"/>
</svg>
