<svg width="13" height="11" viewBox="0 0 13 11" fill="none" xmlns="http://www.w3.org/2000/svg">
<path d="M12.2019 9.16537C12.2019 9.43545 12.0946 9.69447 11.9036 9.88545C11.7126 10.0764 11.4536 10.1837 11.1835 10.1837H2.01835C1.74827 10.1837 1.48925 10.0764 1.29827 9.88545C1.10729 9.69447 1 9.43545 1 9.16537V3.56443C1 3.29435 1.10729 3.03533 1.29827 2.84435C1.48925 2.65337 1.74827 2.54608 2.01835 2.54608H4.05505L5.07341 1.01855H8.12846L9.14681 2.54608H11.1835C11.4536 2.54608 11.7126 2.65337 11.9036 2.84435C12.0946 3.03533 12.2019 3.29435 12.2019 3.56443V9.16537Z" stroke="white" stroke-width="0.763756" stroke-linecap="round" stroke-linejoin="round"/>
<path d="M6.60116 8.14665C7.726 8.14665 8.63786 7.23478 8.63786 6.10994C8.63786 4.9851 7.726 4.07324 6.60116 4.07324C5.47632 4.07324 4.56445 4.9851 4.56445 6.10994C4.56445 7.23478 5.47632 8.14665 6.60116 8.14665Z" stroke="white" stroke-width="0.763756" stroke-linecap="round" stroke-linejoin="round"/>
</svg>
