<svg width="13" height="12" viewBox="0 0 13 12" fill="none" xmlns="http://www.w3.org/2000/svg">
<path d="M10.8397 4.98112H8.61069L7.29069 2.7832C8.14371 2.6898 8.80993 1.96754 8.80993 1.08962V0.46698C8.80993 0.211698 8.59824 0 8.34296 0H4.60712C4.35183 0 4.14014 0.211698 4.14014 0.46698V1.08962C4.14014 1.96754 4.80636 2.68358 5.65938 2.7832L4.33938 4.98112H2.11033C1.16392 4.98112 0.398071 5.74696 0.398071 6.69338V9.80658C0.398071 10.753 1.16392 11.5188 2.11033 11.5188H10.8273C11.7737 11.5188 12.5395 10.753 12.5395 9.80658V6.69338C12.5395 5.74696 11.7737 4.98112 10.8273 4.98112H10.8397ZM5.08032 1.08962V0.93396H7.8822V1.08962C7.8822 1.51924 7.53352 1.86792 7.1039 1.86792H5.85862C5.429 1.86792 5.08032 1.51924 5.08032 1.08962ZM6.48126 3.24395L7.5273 4.98112H5.44145L6.48749 3.24395H6.48126ZM11.618 9.80658C11.618 10.2362 11.2694 10.5849 10.8397 10.5849H2.12278C1.69316 10.5849 1.34448 10.2362 1.34448 9.80658V6.69338C1.34448 6.26376 1.69316 5.91508 2.12278 5.91508H10.8397C11.2694 5.91508 11.618 6.26376 11.618 6.69338V9.80658Z" fill="#585858"/>
<path d="M6.48126 6.84863C6.22598 6.84863 6.01428 7.06033 6.01428 7.31561V9.18353C6.01428 9.43881 6.22598 9.65051 6.48126 9.65051C6.73654 9.65051 6.94824 9.43881 6.94824 9.18353V7.31561C6.94824 7.06033 6.73654 6.84863 6.48126 6.84863Z" fill="#585858"/>
<path d="M8.97186 6.84863C8.71658 6.84863 8.50488 7.06033 8.50488 7.31561V9.18353C8.50488 9.43881 8.71658 9.65051 8.97186 9.65051C9.22714 9.65051 9.43884 9.43881 9.43884 9.18353V7.31561C9.43884 7.06033 9.22714 6.84863 8.97186 6.84863Z" fill="#585858"/>
<path d="M3.99066 6.84863C3.73538 6.84863 3.52368 7.06033 3.52368 7.31561V9.18353C3.52368 9.43881 3.73538 9.65051 3.99066 9.65051C4.24594 9.65051 4.45764 9.43881 4.45764 9.18353V7.31561C4.45764 7.06033 4.24594 6.84863 3.99066 6.84863Z" fill="#585858"/>
</svg>
