<svg width="16" height="16" viewBox="0 0 16 16" fill="none" xmlns="http://www.w3.org/2000/svg">
<path d="M13.2827 11.3469L6.26899 11.383C6.18069 11.0764 6.0199 10.7873 5.78751 10.5576C5.55512 10.328 5.27067 10.1677 4.96057 10.0876L4.92268 2.2203C4.91457 1.16994 4.06022 0.31127 3.00887 0.326235L2.31581 0.330358C2.029 0.330612 1.79936 0.563005 1.79961 0.849816C1.79987 1.13663 2.03226 1.36627 2.31907 1.36602L3.01213 1.36189C3.48687 1.36799 3.87942 1.74682 3.88017 2.22256L3.91806 10.0899C3.61145 10.1782 3.32228 10.339 3.09263 10.5714C2.73247 10.9317 2.53646 11.4137 2.54008 11.9179C2.54844 12.8703 3.25222 13.6582 4.17007 13.7916C4.26597 13.8056 4.35501 13.8185 4.4539 13.8119C4.96487 13.8093 5.44111 13.6128 5.79441 13.2515C6.02406 13.0191 6.18433 12.7347 6.2644 12.4245L13.2781 12.3884C13.565 12.3882 13.7946 12.1558 13.7943 11.869C13.7941 11.5822 13.5558 11.3447 13.2749 11.3528L13.2827 11.3469ZM5.06211 12.5155C4.89823 12.6805 4.68265 12.7681 4.45163 12.7694C3.9759 12.7702 3.58434 12.3845 3.58359 11.9088C3.58221 11.6777 3.66988 11.4597 3.83377 11.2947C3.99766 11.1296 4.21323 11.0421 4.44425 11.0407C4.48535 11.0467 4.53429 11.0468 4.57539 11.0528C4.75348 11.0787 4.9236 11.1594 5.05835 11.2909C5.22337 11.4548 5.31092 11.6704 5.3123 11.9014C5.31367 12.1324 5.226 12.3505 5.06211 12.5155Z" fill="#585858"/>
<path d="M5.98646 7.74614C5.99058 8.43919 6.26009 9.08691 6.75514 9.57857C7.15255 9.97211 7.65407 10.2269 8.20204 10.3066C8.33218 10.3255 8.46332 10.3376 8.5896 10.335L11.3608 10.3253C12.0539 10.3212 12.7016 10.0517 13.1933 9.55666C13.6781 9.06061 13.9469 8.41425 13.9438 7.71435L13.9342 4.94313C13.9301 4.25007 13.6605 3.60236 13.1655 3.11069C12.6704 2.61902 12.0172 2.34916 11.3232 2.36013L8.55196 2.36978C7.12376 2.3789 5.96085 3.54572 5.96897 4.98077L5.97861 7.75199L5.98646 7.74614ZM8.56207 3.40643L11.3333 3.39679C11.4106 3.39405 11.4938 3.39915 11.5692 3.41011C11.898 3.45793 12.1981 3.60649 12.4363 3.84398C12.7293 4.13839 12.8966 4.52644 12.8985 4.94639L12.9082 7.71761C12.911 8.1307 12.7485 8.52673 12.4541 8.81965C12.1597 9.11257 11.7717 9.27996 11.3517 9.28184L8.58049 9.29148C8.1674 9.29435 7.77137 9.13184 7.47845 8.83743C7.18553 8.54303 7.01814 8.15497 7.01626 7.73503L7.00662 4.96381C7.00586 4.10338 7.69578 3.39935 8.55622 3.39859L8.56207 3.40643Z" fill="#585858"/>
</svg>
