<svg width="15" height="15" viewBox="0 0 15 15" fill="none" xmlns="http://www.w3.org/2000/svg">
<path d="M14.3826 0.617545C13.5592 -0.205848 12.2125 -0.205848 11.3891 0.617545L6.17176 5.83494C5.91781 6.08888 5.7793 6.42747 5.7793 6.78915V8.64371C5.7793 8.95922 6.04094 9.22085 6.35644 9.22085H8.211C8.57268 9.22085 8.91127 9.08234 9.16521 8.82839L14.3826 3.611C15.206 2.78761 15.206 1.44094 14.3826 0.617545ZM8.34952 8.0127C8.34952 8.0127 8.26487 8.06656 8.211 8.06656H6.93359V6.78915C6.93359 6.73528 6.95667 6.68911 6.98745 6.65063L10.7043 2.93382L12.0663 4.29588L8.34952 8.0127ZM13.5669 2.79531L12.8897 3.47249L11.5277 2.11043L12.2048 1.43324C12.5819 1.05618 13.1898 1.05618 13.5669 1.43324C13.944 1.81031 13.944 2.41824 13.5669 2.79531Z" fill="#272A30"/>
<path d="M12.12 6.91989C11.8045 6.91989 11.5429 7.18153 11.5429 7.49704V12.1142C11.5429 13.0684 10.7657 13.8456 9.81147 13.8456H2.88573C1.93151 13.8456 1.15429 13.0684 1.15429 12.1142V5.18846C1.15429 4.23425 1.93151 3.45702 2.88573 3.45702H7.50289C7.81839 3.45702 8.08003 3.19539 8.08003 2.87988C8.08003 2.56437 7.81839 2.30273 7.50289 2.30273H2.88573C1.2928 2.30273 0 3.59554 0 5.18846V12.1142C0 13.7071 1.2928 14.9999 2.88573 14.9999H9.81147C11.4044 14.9999 12.6972 13.7071 12.6972 12.1142V7.49704C12.6972 7.18153 12.4356 6.91989 12.12 6.91989Z" fill="#272A30"/>
</svg>
