<svg width="16" height="16" viewBox="0 0 16 16" fill="none" xmlns="http://www.w3.org/2000/svg">
<path d="M13.8062 4.37417L10.5625 1.47919C9.10282 0.173605 6.89712 0.173605 5.43746 1.47919L2.19378 4.37417C1.37475 5.104 0.904419 6.15009 0.904419 7.25294V12.4104C0.904419 14.1133 2.26677 15.5 3.94537 15.5H12.0546C13.7332 15.5 15.0955 14.1133 15.0955 12.4104V7.25294C15.0955 6.1582 14.6252 5.104 13.8062 4.37417ZM9.82454 14.2755H6.1754V11.64C6.1754 10.6345 6.99443 9.81545 7.99997 9.81545C9.00551 9.81545 9.82454 10.6345 9.82454 11.64V14.2755ZM13.8791 12.4023C13.8791 13.4322 13.0601 14.2755 12.0546 14.2755H11.0409V11.64C11.0409 9.96141 9.67858 8.59907 7.99997 8.59907C6.32137 8.59907 4.95902 9.96141 4.95902 11.64V14.2755H3.94537C2.93983 14.2755 2.1208 13.4403 2.1208 12.4023V7.24483C2.1208 6.49067 2.44517 5.77706 3.0047 5.27429L6.24838 2.37931C7.24582 1.4873 8.75413 1.4873 9.75156 2.37931L12.9952 5.27429C13.5548 5.77706 13.8791 6.49067 13.8791 7.24483V12.4023Z" fill="#585858"/>
</svg>
