<svg width="15" height="14" viewBox="0 0 15 14" fill="none" xmlns="http://www.w3.org/2000/svg">
<path d="M12.1154 0H2.88462C1.29231 0 0 1.29231 0 2.88462V10.5769C0 12.1692 1.29231 13.4615 2.88462 13.4615H12.1154C13.7077 13.4615 15 12.1692 15 10.5769V2.88462C15 1.29231 13.7077 0 12.1154 0ZM2.88462 1.15385H12.1154C13.0692 1.15385 13.8462 1.93077 13.8462 2.88462V3.07692H1.15385V2.88462C1.15385 1.93077 1.93077 1.15385 2.88462 1.15385ZM12.1154 12.3077H2.88462C1.93077 12.3077 1.15385 11.5308 1.15385 10.5769V4.23077H13.8462V10.5769C13.8462 11.5308 13.0692 12.3077 12.1154 12.3077Z" fill="#272A30"/>
<path d="M10.0308 6.69192C9.80006 6.37654 9.43852 6.18423 9.0539 6.15346C8.66929 6.12269 8.28467 6.26885 8.01544 6.53808L7.08467 7.43808L6.91544 7.23039C6.39236 6.70731 5.53852 6.70731 4.96929 7.27654L3.43083 9.215C3.23083 9.46116 3.27698 9.83039 3.52313 10.0227C3.76929 10.215 4.13852 10.1765 4.33083 9.93039L5.82313 8.03808C5.90006 7.96116 6.02313 7.96116 6.0539 7.99193L7.81544 10.1612C7.93082 10.2996 8.09236 10.3765 8.26159 10.3765C8.39236 10.3765 8.51544 10.3304 8.62313 10.2458C8.86929 10.0458 8.90775 9.68423 8.70775 9.43039L7.80006 8.32269L8.80775 7.35346C8.86159 7.29962 8.92313 7.29962 8.96159 7.29962C8.99236 7.29962 9.0539 7.315 9.07698 7.33808L10.6539 9.84577C10.7616 10.0227 10.9539 10.115 11.1462 10.115C11.2539 10.115 11.3539 10.0842 11.4539 10.0227C11.7231 9.85346 11.8077 9.49962 11.6385 9.23039L10.0308 6.68423V6.69192Z" fill="#272A30"/>
<path d="M11.3611 2.69193C11.6842 2.69193 11.938 2.43039 11.938 2.11501C11.938 1.79962 11.6842 1.53809 11.3611 1.53809C11.0457 1.53809 10.7842 1.79962 10.7842 2.11501C10.7842 2.43039 11.0457 2.69193 11.3611 2.69193Z" fill="#272A30"/>
</svg>
    