<svg width="23" height="29" viewBox="0 0 23 29" fill="none" xmlns="http://www.w3.org/2000/svg">
<path fill-rule="evenodd" clip-rule="evenodd" d="M11.5 28.1111C11.5 28.1111 23 20.4444 23 11.5C23 8.45001 21.7884 5.52494 19.6317 3.36827C17.4751 1.2116 14.55 0 11.5 0C8.45001 0 5.52494 1.2116 3.36827 3.36827C1.2116 5.52494 0 8.45001 0 11.5C0 20.4444 11.5 28.1111 11.5 28.1111ZM15.3334 11.5003C15.3334 13.6174 13.6172 15.3337 11.5001 15.3337C9.38299 15.3337 7.66675 13.6174 7.66675 11.5003C7.66675 9.38323 9.38299 7.66699 11.5001 7.66699C13.6172 7.66699 15.3334 9.38323 15.3334 11.5003Z" fill="#FF500B"/>
</svg>
