<svg width="15" height="14" viewBox="0 0 15 14" fill="none" xmlns="http://www.w3.org/2000/svg">
<path d="M13.5 7.54054C13.3949 8.67776 12.9681 9.76152 12.2696 10.665C11.571 11.5685 10.6296 12.2544 9.55544 12.6424C8.4813 13.0304 7.31888 13.1044 6.20419 12.8559C5.0895 12.6073 4.06866 12.0465 3.2611 11.2389C2.45354 10.4313 1.89267 9.4105 1.64412 8.29581C1.39557 7.18112 1.46962 6.0187 1.85761 4.94457C2.24559 3.87043 2.93147 2.929 3.83497 2.23045C4.73848 1.53189 5.82224 1.10509 6.95946 1C6.29366 1.90076 5.97327 3.01056 6.05656 4.12758C6.13986 5.24459 6.62132 6.2946 7.41336 7.08664C8.2054 7.87869 9.25541 8.36014 10.3724 8.44344C11.4894 8.52673 12.5992 8.20635 13.5 7.54054Z" stroke="#585858" stroke-width="1.28571" stroke-linecap="round" stroke-linejoin="round"/>
</svg>
