<svg width="33" height="30" viewBox="0 0 33 30" fill="none" xmlns="http://www.w3.org/2000/svg">
<path d="M31.0439 23.7725L31.0489 23.7688C30.4776 22.6563 29.1693 22.2293 28.0734 22.6784L30.0838 20.3463C31.054 19.2443 31.2849 17.7064 30.6747 16.3598C30.0641 15.0123 28.7595 14.1744 27.2955 14.1744H27.1469V12.3498C27.1469 11.0683 26.0976 10.0189 24.8161 10.0189H19.2755C18.4192 10.0189 17.6665 10.4876 17.2613 11.1809C16.8668 9.99992 15.8924 9.07769 14.6806 8.75658V8.19431C14.6806 6.47749 13.4997 5.02229 11.9103 4.60112V4.03886C11.9103 2.75742 10.8609 1.70804 9.57946 1.70804C8.29802 1.70804 7.24864 2.75742 7.24864 4.03886V4.60112C5.65925 5.02229 4.47834 6.47749 4.47834 8.19431V8.75658C2.88894 9.17775 1.70804 10.6329 1.70804 12.3498V24.8161V24.9971L1.74314 25.1199C1.75837 25.292 1.798 25.4768 1.8697 25.6561L1.88966 25.706L1.91369 25.754C1.91509 25.7568 1.91668 25.76 1.91846 25.7636C1.94503 25.8171 2.01329 25.9547 2.11948 26.0999C2.12118 26.1026 2.12336 26.106 2.12605 26.1103L2.12905 26.1151C2.14557 26.1417 2.18852 26.2106 2.24347 26.2839L2.29856 26.3573L2.36347 26.4222C2.4473 26.5061 2.52886 26.5694 2.56708 26.5982L2.62015 26.6512L2.66233 26.6793C2.70048 26.7126 2.7584 26.76 2.83413 26.8098L2.85669 26.8324L2.96587 26.8873C2.97383 26.8915 2.98191 26.8956 2.99011 26.8997L3.04226 26.9258C3.04313 26.9262 3.044 26.9267 3.04487 26.9271C3.07187 26.9407 3.09888 26.9542 3.12589 26.9676L3.26291 27.0361H3.26543C5.31521 28.0309 7.37895 28.5173 9.55688 28.5321V28.5321H9.56561C11.5546 28.5321 12.822 28.067 13.8314 27.6921L13.8546 27.6837C14.7393 27.3668 15.3529 27.1469 16.4914 27.1469C17.6298 27.1469 18.2434 27.3668 19.1282 27.6837L19.1584 27.6946L19.1596 27.695C19.1787 27.7018 19.198 27.7087 19.2173 27.7156C20.205 28.0686 21.4587 28.5167 23.4069 28.5321V28.5321H23.4171H23.4725C25.6876 28.5321 27.8962 27.9773 30.0162 26.8948L30.0188 26.8935C31.146 26.3147 31.6267 24.9305 31.0439 23.7725ZM2.59679 26.6206C2.59674 26.6205 2.59566 26.6197 2.59373 26.6182C2.59588 26.6198 2.59684 26.6206 2.59679 26.6206ZM12.2615 23.3224L12.2604 23.3228L12.2567 23.3241C11.3649 23.6436 10.7319 23.8703 9.58516 23.8842C8.5457 23.8625 7.46322 23.6667 6.36969 23.2762V18.8499H25.2269L21.2243 23.4928C21.0793 23.4425 20.9258 23.3867 20.7559 23.3249L20.7559 23.3249L20.7489 23.3224C20.7296 23.3155 20.7103 23.3086 20.6908 23.3016C19.7036 22.9488 18.4456 22.4991 16.5052 22.4991C14.5648 22.4991 13.3068 22.9488 12.3196 23.3016C12.3002 23.3086 12.2808 23.3155 12.2615 23.3224ZM6.36969 13.3093H12.7892V14.1882H6.36969V13.3093Z" fill="#1E1E1E" stroke="#FF500B" stroke-width="2.58392"/>
<rect x="7.52197" y="18.5039" width="14.8575" height="4.52186" fill="#FF500B"/>
</svg>
