<svg width="15" height="13" viewBox="0 0 15 13" fill="none" xmlns="http://www.w3.org/2000/svg">
<path d="M14.2842 11.3861C14.1503 11.1254 13.8331 11.0267 13.5724 11.1536C12.8606 11.52 12.1346 11.7174 11.4158 11.7737L13.8825 8.91238C14.2067 8.5459 14.2842 8.03846 14.0798 7.58741C13.8754 7.13636 13.4455 6.86149 12.9592 6.86149H12.2263V5.27576C12.2263 4.9868 11.9866 4.74718 11.6977 4.74718H8.87859C8.58964 4.74718 8.35002 4.9868 8.35002 5.27576V6.86149H7.29286V5.27576C7.29286 4.59918 6.73609 4.04241 6.05951 4.04241H5.88332V3.16145C5.88332 2.48487 5.32655 1.9281 4.64997 1.9281H4.47378V1.04713C4.47378 0.758177 4.23415 0.518555 3.9452 0.518555C3.65624 0.518555 3.41662 0.758177 3.41662 1.04713V1.9281H3.24043C2.56385 1.9281 2.00708 2.48487 2.00708 3.16145V4.04241H1.83088C1.1543 4.04241 0.597534 4.59918 0.597534 5.27576V11.6187C0.597534 11.6187 0.61163 11.668 0.61163 11.6892C0.61163 11.7244 0.618677 11.7667 0.632773 11.8019C0.646868 11.8301 0.660963 11.8583 0.682107 11.8865C0.70325 11.9147 0.717345 11.9429 0.738488 11.9711C0.766679 11.9993 0.79487 12.0134 0.823061 12.0416C0.844204 12.0557 0.8583 12.0768 0.88649 12.0909C0.893538 12.0909 0.907633 12.0979 0.914681 12.105C1.90841 12.6054 2.89509 12.845 3.93815 12.852C4.83321 12.852 5.38998 12.6477 5.88332 12.4644C6.35551 12.2953 6.75723 12.1473 7.462 12.1473C8.16678 12.1473 8.56849 12.2953 9.04069 12.4644C9.53403 12.6406 10.0908 12.845 10.9859 12.852H11.0141C12.0289 12.852 13.0508 12.5983 14.0446 12.0909C14.3053 11.957 14.411 11.6398 14.2771 11.3791L14.2842 11.3861ZM9.40717 5.81139H11.1691V6.86854H9.40717V5.81139ZM3.06423 3.16849C3.06423 3.06983 3.14176 2.9923 3.24043 2.9923H4.64997C4.74864 2.9923 4.82616 3.06983 4.82616 3.16849V4.04946H3.06423V3.16849ZM1.65469 5.28281C1.65469 5.18414 1.73222 5.10661 1.83088 5.10661H6.05951C6.15818 5.10661 6.2357 5.18414 6.2357 5.28281V6.86854H1.65469V5.28281ZM7.46905 11.0972C6.58104 11.0972 6.02427 11.3016 5.53093 11.4777C5.05874 11.6469 4.64997 11.7949 3.9452 11.8019C3.19814 11.7878 2.42289 11.6187 1.65469 11.2804V7.9257H12.9592C13.0579 7.9257 13.1002 7.98913 13.1213 8.03141C13.1354 8.0737 13.1566 8.14418 13.0861 8.2217L10.0908 11.6962C9.85118 11.6398 9.63975 11.5623 9.40717 11.4777C8.91383 11.3016 8.35706 11.0972 7.46905 11.0972Z" fill="#585858"/>
</svg>
