<svg width="15" height="15" viewBox="0 0 15 15" fill="none" xmlns="http://www.w3.org/2000/svg">
<path d="M14.9537 5.69983C14.7894 5.18451 14.3562 4.81855 13.8185 4.74386L10.3381 4.22854L8.78467 1.06935C8.54568 0.583897 8.06769 0.285156 7.52249 0.285156C6.98476 0.285156 6.4993 0.583897 6.26031 1.06935L4.69192 4.22107L1.20412 4.72146C0.673855 4.79614 0.233213 5.1621 0.0689053 5.67743C-0.0954021 6.19276 0.0390313 6.73796 0.419926 7.11885L2.93682 9.58346L2.33187 13.0489C2.24224 13.5791 2.45136 14.1094 2.88454 14.4231C3.31771 14.7442 3.88532 14.7816 4.3633 14.5351L7.48515 12.907L10.5995 14.55C10.8086 14.6621 11.0327 14.7143 11.2567 14.7143C11.548 14.7143 11.8318 14.6247 12.0783 14.4455C12.5115 14.1318 12.728 13.6015 12.6384 13.0713L12.0484 9.5984L14.5728 7.14873C14.9611 6.7753 15.0956 6.22263 14.9313 5.7073L14.9537 5.69983ZM13.811 6.33466L11.07 8.99345C10.9356 9.12042 10.8759 9.30713 10.9057 9.48637L11.5406 13.2505C11.5704 13.4073 11.4733 13.497 11.4285 13.5268C11.3837 13.5567 11.2717 13.6239 11.1298 13.5492L7.75401 11.7643C7.67186 11.7195 7.58224 11.6971 7.49261 11.6971C7.40299 11.6971 7.31337 11.7195 7.23122 11.7568L3.84798 13.5268C3.70607 13.6015 3.59405 13.5343 3.54924 13.5044C3.50442 13.4746 3.40733 13.3849 3.43721 13.2281L4.08697 9.47144C4.11684 9.29219 4.0571 9.10548 3.93013 8.97851L1.20412 6.31225C1.09209 6.20022 1.1145 6.07326 1.12944 6.02098C1.14437 5.9687 1.20412 5.8492 1.36096 5.8268L5.14003 5.28907C5.31927 5.25919 5.48358 5.14716 5.56574 4.98286L7.26109 1.56227C7.32831 1.42037 7.46274 1.40543 7.51502 1.40543C7.5673 1.40543 7.70173 1.42037 7.76895 1.56227L9.44937 4.99032C9.53152 5.15463 9.68836 5.27413 9.8676 5.29653L13.6392 5.85667C13.796 5.87908 13.8558 5.99857 13.8707 6.05085C13.8857 6.10313 13.9155 6.2301 13.796 6.34213L13.811 6.33466Z" fill="#272A30"/>
</svg>
