<svg width="13" height="14" viewBox="0 0 13 14" fill="none" xmlns="http://www.w3.org/2000/svg">
<path d="M1.39941 3.52051H2.55941H11.8394" stroke="#585858" stroke-width="1.09" stroke-linecap="round" stroke-linejoin="round"/>
<path d="M10.6796 3.5202V11.6402C10.6796 11.9478 10.5574 12.2429 10.3398 12.4604C10.1223 12.678 9.82722 12.8002 9.51957 12.8002H3.71957C3.41192 12.8002 3.11687 12.678 2.89933 12.4604C2.68178 12.2429 2.55957 11.9478 2.55957 11.6402V3.5202M4.29957 3.5202V2.3602C4.29957 2.05254 4.42178 1.75749 4.63933 1.53995C4.85687 1.32241 5.15192 1.2002 5.45957 1.2002H7.77957C8.08722 1.2002 8.38227 1.32241 8.59981 1.53995C8.81736 1.75749 8.93957 2.05254 8.93957 2.3602V3.5202" stroke="#585858" stroke-width="1.09" stroke-linecap="round" stroke-linejoin="round"/>
<path d="M5.45898 6.41992V9.89992" stroke="#585858" stroke-width="1.09" stroke-linecap="round" stroke-linejoin="round"/>
<path d="M7.7793 6.41992V9.89992" stroke="#585858" stroke-width="1.09" stroke-linecap="round" stroke-linejoin="round"/>
</svg>
